<?xml version="1.0" encoding="UTF-8" standalone="no"?>
<svg
   viewBox="0 0 1280 1280"
   version="1.1"
   id="svg3"
   sodipodi:docname="icon.svg"
   inkscape:version="1.4 (e7c3feb100, 2024-10-09)"
   xmlns:inkscape="http://www.inkscape.org/namespaces/inkscape"
   xmlns:sodipodi="http://sodipodi.sourceforge.net/DTD/sodipodi-0.dtd"
   xmlns="http://www.w3.org/2000/svg"
   xmlns:svg="http://www.w3.org/2000/svg">
  <sodipodi:namedview
     id="namedview3"
     pagecolor="#ffffff"
     bordercolor="#000000"
     borderopacity="0.25"
     inkscape:showpageshadow="2"
     inkscape:pageopacity="0.0"
     inkscape:pagecheckerboard="0"
     inkscape:deskcolor="#d1d1d1"
     inkscape:zoom="0.46624854"
     inkscape:cx="1072.3894"
     inkscape:cy="469.70656"
     inkscape:window-width="1898"
     inkscape:window-height="1031"
     inkscape:window-x="0"
     inkscape:window-y="0"
     inkscape:window-maximized="0"
     inkscape:current-layer="svg3" />
  <defs
     id="defs1">
    <inkscape:path-effect
       effect="taper_stroke"
       start_shape="center | center | center | center"
       end_shape="center | center | center | center"
       id="path-effect6"
       is_visible="true"
       lpeversion="1"
       stroke_width="24.435499"
       subpath="1"
       attach_start="0.2 | 0.2 | 0.2"
       end_offset="0.2 | 0.2 | 0.2"
       start_smoothing="0.5 | 0.5 | 0.5"
       end_smoothing="0.5 | 0.5 | 0.5"
       jointype="extrapolated"
       miter_limit="100" />
    <inkscape:path-effect
       effect="powerstroke"
       message=""
       id="path-effect5"
       is_visible="true"
       lpeversion="1.3"
       scale_width="1"
       interpolator_type="CentripetalCatmullRom"
       interpolator_beta="1"
       start_linecap_type="zerowidth"
       end_linecap_type="zerowidth"
       offset_points="0.2,12.21775 | 4,12.21775 | 7.4224514,11.55849"
       linejoin_type="bevel"
       miter_limit="5.2"
       not_jump="false"
       sort_points="true" />
    <inkscape:path-effect
       effect="powerstroke"
       message=""
       id="path-effect2"
       is_visible="true"
       lpeversion="1.3"
       scale_width="1"
       interpolator_type="CentripetalCatmullRom"
       interpolator_beta="1"
       start_linecap_type="zerowidth"
       end_linecap_type="zerowidth"
       offset_points="19.5,0.49983451 | 49.5,0.49983451"
       linejoin_type="round"
       miter_limit="4"
       not_jump="false"
       sort_points="true" />
    <style
       id="style1">
      .cls-1 {
        fill: #fff;
      }
    </style>
    <inkscape:path-effect
       effect="fill_between_many"
       method="bsplinespiro"
       autoreverse="false"
       close="false"
       join="false"
       linkedpaths="#path3,0,1"
       id="path-effect3" />
    <inkscape:path-effect
       effect="fill_between_many"
       method="bsplinespiro"
       autoreverse="false"
       close="false"
       join="false"
       linkedpaths="#path5,0,1"
       id="path-effect7" />
  </defs>
  <g
     id="Layer_3"
     data-name="Layer 3"
     transform="matrix(1.2277224,0,0,1.2277224,-146.09937,-145.38537)"
     style="stroke-width:0.999669;stroke-dasharray:none">
    <path
       id="path3"
       style="display:inline;fill:#ffffff;fill-rule:nonzero;stroke:none"
       class="cls-1"
       d="m 802.16016,343.99219 c -29.91736,0.33696 -59.18259,11.78235 -82.72266,26.98242 -10e-4,7.8e-4 -0.003,0.001 -0.004,0.002 -7.4e-4,4.8e-4 -10e-4,0.001 -0.002,0.002 -52.03082,33.55585 -81.602,94.35706 -102.48633,146.96289 a 11.001976,11.001976 0 0 0 -0.041,0.10156 c -15.55108,40.34517 -26.50231,82.017 -34.66407,124.0293 -0.93711,4.8221 -2.14772,10.54881 -3.3125,16.2539 -30.41118,-21.54309 -55.95497,-49.71152 -73.20312,-82.64062 a 11.001976,11.001976 0 0 0 -0.0352,-0.0684 C 481.7299,530.64549 474.35931,477.65987 480.67773,426.63086 a 11.001976,11.001976 0 0 0 0.006,-0.0508 C 482.73876,409.31864 486.30367,392.08177 490.9375,375 a 11.001976,11.001976 0 0 0 0.006,-0.0215 c 2.55384,-9.48569 -2.924,-19.54808 -12.29883,-22.56055 -9.668,-3.10785 -20.32503,2.37502 -23.41992,12.04297 -24.43624,74.5341 -25.36965,159.09746 11.03711,231.36718 22.39353,45.48635 57.78145,83.24724 99.91797,110.58399 -0.6414,2.04617 -1.27658,4.24382 -1.95117,6.16601 a 11.001976,11.001976 0 0 0 -0.0234,0.0684 C 545.39552,767.41091 511.65746,818.24074 462.75,848.29687 a 11.001976,11.001976 0 0 0 -0.0254,0.0156 c -28.785,17.79523 -62.04101,29.28041 -95.47266,30.70703 a 11.001976,11.001976 0 0 0 -0.12109,0.0488 c -8.57259,0.42406 -15.79051,8.45881 -15.98242,15.98047 -0.19457,7.62578 6.38626,16.08098 15.13086,16.90429 a 11.001976,11.001976 0 0 0 0.54297,0.0371 c 10.59849,0.47081 20.82719,-0.39911 30.74609,-1.71679 a 11.001976,11.001976 0 0 0 0.0332,-0.004 c 29.83203,-4.05749 58.63151,-14.06835 84.74414,-28.72656 l 0.004,-0.002 c 60.03578,-33.53522 99.95232,-90.9569 123.87305,-153.1211 31.97552,14.38601 66.47024,23.22129 101.65429,25.09375 73.95892,4.35586 148.73967,-25.54895 189.64453,-90.67578 17.09719,-26.45529 26.3307,-56.04805 33.25977,-85.10742 a 11.001976,11.001976 0 0 0 0,-0.004 c 17.30562,-72.73525 10.08606,-152.01476 -53.2207,-203.78711 -7.1835,-5.93581 -14.64528,-11.27799 -22.38868,-16.18945 a 11.001976,11.001976 0 0 0 -0.26953,-0.16602 C 838.3576,347.7437 820.1114,343.79 802.16016,343.99219 Z m 5.98828,55.70312 c 6.66378,0.16292 12.68277,1.29836 17.38867,3.44531 9.4747,4.40976 16.2843,9.78606 22.27539,15.50586 a 11.001976,11.001976 0 0 0 0.68945,0.60547 c 26.51337,21.38323 37.21815,47.54387 39.52149,77.25782 2.30333,29.71394 -4.52644,62.75288 -14.37891,94.44531 a 11.001976,11.001976 0 0 0 -0.0742,0.25 c -8.79391,30.85417 -25.70848,59.42825 -50.35742,79.03515 a 11.001976,11.001976 0 0 0 -0.0684,0.0547 c -34.11935,27.5782 -81.04446,37.37394 -125.375,32.95703 a 11.001976,11.001976 0 0 0 -0.0234,-0.002 c -26.421,-2.57131 -52.31864,-9.91655 -76.61523,-20.89844 0.26409,-1.01847 0.55398,-1.99931 0.80859,-3.02734 l 0.004,-0.0137 c 2.02773,-8.09134 4.68123,-19.57949 6.40625,-27.85547 l -0.0215,0.10156 C 640.69067,594.90653 658,539.01201 685.16211,488.62305 c 12.3269,-22.37387 25.088,-41.15585 42.84961,-57.73047 16.41483,-15.31785 37.19757,-25.20938 59.31055,-29.29688 h -0.01 c 6.91762,-1.27295 14.16525,-2.06348 20.83594,-1.90039 z"
       inkscape:path-effect="#path-effect2"
       inkscape:original-d="m 802.16016,343.99219 c -29.91736,0.33696 -59.18259,11.78235 -82.72266,26.98242 -10e-4,7.8e-4 -0.003,0.001 -0.004,0.002 -7.4e-4,4.8e-4 -10e-4,0.001 -0.002,0.002 -52.03082,33.55585 -81.602,94.35706 -102.48633,146.96289 a 11.001976,11.001976 0 0 0 -0.041,0.10156 c -15.55108,40.34517 -26.50231,82.017 -34.66407,124.0293 -0.93711,4.8221 -2.14772,10.54881 -3.3125,16.2539 -30.41118,-21.54309 -55.95497,-49.71152 -73.20312,-82.64062 a 11.001976,11.001976 0 0 0 -0.0352,-0.0684 C 481.7299,530.64549 474.35931,477.65987 480.67773,426.63086 a 11.001976,11.001976 0 0 0 0.006,-0.0508 C 482.73876,409.31864 486.30367,392.08177 490.9375,375 a 11.001976,11.001976 0 0 0 0.006,-0.0215 c 2.55384,-9.48569 -2.924,-19.54808 -12.29883,-22.56055 -9.668,-3.10785 -20.32503,2.37502 -23.41992,12.04297 -24.43624,74.5341 -25.36965,159.09746 11.03711,231.36718 22.39353,45.48635 57.78145,83.24724 99.91797,110.58399 -0.6414,2.04617 -1.27658,4.24382 -1.95117,6.16601 a 11.001976,11.001976 0 0 0 -0.0234,0.0684 C 545.39552,767.41091 511.65746,818.24074 462.75,848.29687 a 11.001976,11.001976 0 0 0 -0.0254,0.0156 c -28.785,17.79523 -62.04101,29.28041 -95.47266,30.70703 a 11.001976,11.001976 0 0 0 -0.12109,0.0488 c -8.57259,0.42406 -15.79051,8.45881 -15.98242,15.98047 -0.19457,7.62578 6.38626,16.08098 15.13086,16.90429 a 11.001976,11.001976 0 0 0 0.54297,0.0371 c 10.59849,0.47081 20.82719,-0.39911 30.74609,-1.71679 a 11.001976,11.001976 0 0 0 0.0332,-0.004 c 29.83203,-4.05749 58.63151,-14.06835 84.74414,-28.72656 l 0.004,-0.002 c 60.03578,-33.53522 99.95232,-90.9569 123.87305,-153.1211 31.97552,14.38601 66.47024,23.22129 101.65429,25.09375 73.95892,4.35586 148.73967,-25.54895 189.64453,-90.67578 17.09719,-26.45529 26.3307,-56.04805 33.25977,-85.10742 a 11.001976,11.001976 0 0 0 0,-0.004 c 17.30562,-72.73525 10.08606,-152.01476 -53.2207,-203.78711 -7.1835,-5.93581 -14.64528,-11.27799 -22.38868,-16.18945 a 11.001976,11.001976 0 0 0 -0.26953,-0.16602 C 838.3576,347.7437 820.1114,343.79 802.16016,343.99219 Z m 5.98828,55.70312 c 6.66378,0.16292 12.68277,1.29836 17.38867,3.44531 9.4747,4.40976 16.2843,9.78606 22.27539,15.50586 a 11.001976,11.001976 0 0 0 0.68945,0.60547 c 26.51337,21.38323 37.21815,47.54387 39.52149,77.25782 2.30333,29.71394 -4.52644,62.75288 -14.37891,94.44531 a 11.001976,11.001976 0 0 0 -0.0742,0.25 c -8.79391,30.85417 -25.70848,59.42825 -50.35742,79.03515 a 11.001976,11.001976 0 0 0 -0.0684,0.0547 c -34.11935,27.5782 -81.04446,37.37394 -125.375,32.95703 a 11.001976,11.001976 0 0 0 -0.0234,-0.002 c -26.421,-2.57131 -52.31864,-9.91655 -76.61523,-20.89844 0.26409,-1.01847 0.55398,-1.99931 0.80859,-3.02734 l 0.004,-0.0137 c 2.02773,-8.09134 4.68123,-19.57949 6.40625,-27.85547 l -0.0215,0.10156 C 640.69067,594.90653 658,539.01201 685.16211,488.62305 c 12.3269,-22.37387 25.088,-41.15585 42.84961,-57.73047 16.41483,-15.31785 37.19757,-25.20938 59.31055,-29.29688 h -0.01 c 6.91762,-1.27295 14.16525,-2.06348 20.83594,-1.90039 z"
       inkscape:linked-fill="path4" />
    <circle
       style="fill:none;stroke:#ffffff;stroke-width:39.0336;stroke-dasharray:none"
       id="path1"
       cx="640.29077"
       cy="639.70923"
       inkscape:label="path1"
       r="501.77371" />
    <circle
       class="cls-1"
       cx="901.37225"
       cy="874.60797"
       id="circle2"
       style="fill:#ffffff;stroke-width:1.78567;stroke-dasharray:none"
       r="37.51152" />
  </g>
</svg>
