<?xml version="1.0" encoding="UTF-8" standalone="no"?>
<!-- Created with Inkscape (http://www.inkscape.org/) -->

<svg
   width="399.99997"
   height="280"
   viewBox="0 0 105.83333 74.083338"
   version="1.1"
   id="svg1"
   xmlns="http://www.w3.org/2000/svg"
   xmlns:svg="http://www.w3.org/2000/svg"
   xmlns:rdf="http://www.w3.org/1999/02/22-rdf-syntax-ns#"
   xmlns:cc="http://creativecommons.org/ns#">
  <defs
     id="defs1" />
  <g
     id="layer1"
     transform="translate(-110.63882,-60.292214)">
    <path
       style="font-size:25.4px;font-family:Ubuntu;-inkscape-font-specification:Ubuntu;text-align:center;text-anchor:middle;fill:#ff5d1c;stroke-width:0.265"
       d="m 119.85215,108.72661 q 0.8128,-0.2032 2.1336,-0.4318 1.3462,-0.2286 3.0988,-0.2286 1.27,0 2.1336,0.3556 0.8636,0.3302 1.4478,0.9906 0.1778,-0.127 0.5588,-0.3556 0.381,-0.2286 0.9398,-0.4318 0.5588,-0.2286 1.2446,-0.381 0.6858,-0.1778 1.4732,-0.1778 1.524,0 2.4892,0.4572 0.9652,0.4318 1.4986,1.2446 0.5588,0.8128 0.7366,1.9304 0.2032,1.1176 0.2032,2.4384 v 7.4168 h -2.3622 v -6.9088 q 0,-1.1684 -0.127,-2.0066 -0.1016,-0.8382 -0.4318,-1.397 -0.3048,-0.5588 -0.8636,-0.8128 -0.5334,-0.2794 -1.397,-0.2794 -1.1938,0 -1.9812,0.3302 -0.762,0.3048 -1.0414,0.5588 0.2032,0.6604 0.3048,1.4478 0.1016,0.7874 0.1016,1.651 v 7.4168 h -2.3622 v -6.9088 q 0,-1.1684 -0.127,-2.0066 -0.127,-0.8382 -0.4572,-1.397 -0.3048,-0.5588 -0.8636,-0.8128 -0.5334,-0.2794 -1.3716,-0.2794 -0.3556,0 -0.762,0.0254 -0.4064,0.0254 -0.7874,0.0762 -0.3556,0.0254 -0.6604,0.0762 -0.3048,0.0508 -0.4064,0.0762 v 11.1506 h -2.3622 z m 27.64368,11.1252 q 0.8382,0 1.4732,-0.0254 0.6604,-0.0508 1.0922,-0.1524 v -3.937 q -0.254,-0.127 -0.8382,-0.2032 -0.5588,-0.1016 -1.3716,-0.1016 -0.5334,0 -1.143,0.0762 -0.5842,0.0762 -1.0922,0.3302 -0.4826,0.2286 -0.8128,0.6604 -0.3302,0.4064 -0.3302,1.0922 0,1.27 0.8128,1.778 0.8128,0.4826 2.2098,0.4826 z m -0.2032,-11.8364 q 1.4224,0 2.3876,0.381 0.9906,0.3556 1.5748,1.0414 0.6096,0.6604 0.8636,1.6002 0.254,0.9144 0.254,2.032 v 8.255 q -0.3048,0.0508 -0.8636,0.1524 -0.5334,0.0762 -1.2192,0.1524 -0.6858,0.0762 -1.4986,0.127 -0.7874,0.0762 -1.5748,0.0762 -1.1176,0 -2.0574,-0.2286 -0.9398,-0.2286 -1.6256,-0.7112 -0.6858,-0.508 -1.0668,-1.3208 -0.381,-0.8128 -0.381,-1.9558 0,-1.0922 0.4318,-1.8796 0.4572,-0.7874 1.2192,-1.27 0.762,-0.4826 1.778,-0.7112 1.016,-0.2286 2.1336,-0.2286 0.3556,0 0.7366,0.0508 0.381,0.0254 0.7112,0.1016 0.3556,0.0508 0.6096,0.1016 0.254,0.0508 0.3556,0.0762 v -0.6604 q 0,-0.5842 -0.127,-1.143 -0.127,-0.5842 -0.4572,-1.016 -0.3302,-0.4572 -0.9144,-0.7112 -0.5588,-0.2794 -1.4732,-0.2794 -1.1684,0 -2.0574,0.1778 -0.8636,0.1524 -1.2954,0.3302 l -0.2794,-1.9558 q 0.4572,-0.2032 1.524,-0.381 1.0668,-0.2032 2.3114,-0.2032 z m 18.57585,12.2174 q -0.3048,0.2032 -1.1938,0.5334 -0.8636,0.3048 -2.032,0.3048 -1.1938,0 -2.2606,-0.381 -1.0414,-0.381 -1.8288,-1.1684 -0.7874,-0.8128 -1.2446,-2.0066 -0.4572,-1.1938 -0.4572,-2.8448 0,-1.4478 0.4318,-2.6416 0.4318,-1.2192 1.2446,-2.0828 0.8382,-0.889 2.032,-1.3716 1.1938,-0.508 2.6924,-0.508 1.651,0 2.8702,0.254 1.2446,0.2286 2.0828,0.4318 v 11.7856 q 0,3.048 -1.5748,4.4196 -1.5748,1.3716 -4.7752,1.3716 -1.2446,0 -2.3622,-0.2032 -1.0922,-0.2032 -1.905,-0.4826 l 0.4318,-2.0574 q 0.7112,0.2794 1.7272,0.4826 1.0414,0.2286 2.159,0.2286 2.1082,0 3.0226,-0.8382 0.9398,-0.8382 0.9398,-2.667 z m -0.0254,-9.8044 q -0.3556,-0.1016 -0.9652,-0.1778 -0.5842,-0.1016 -1.6002,-0.1016 -1.905,0 -2.9464,1.2446 -1.016,1.2446 -1.016,3.302 0,1.143 0.2794,1.9558 0.3048,0.8128 0.7874,1.3462 0.508,0.5334 1.143,0.7874 0.6604,0.254 1.3462,0.254 0.9398,0 1.7272,-0.254 0.7874,-0.2794 1.2446,-0.635 z m 10.09225,-1.4986 q 0.4318,-0.2794 1.2954,-0.5842 0.889,-0.3048 2.032,-0.3048 1.4224,0 2.5146,0.508 1.1176,0.508 1.8796,1.4224 0.762,0.9144 1.143,2.1844 0.4064,1.27 0.4064,2.794 0,1.6002 -0.4826,2.8956 -0.4572,1.27 -1.3208,2.159 -0.8636,0.889 -2.0828,1.3716 -1.2192,0.4826 -2.7432,0.4826 -1.651,0 -2.921,-0.2286 -1.27,-0.2286 -2.0828,-0.4572 v -18.923 l 2.3622,-0.4064 z m 0,10.5664 q 0.3556,0.1016 0.9906,0.2032 0.6604,0.0762 1.6256,0.0762 1.905,0 3.048,-1.2446 1.143,-1.27 1.143,-3.5814 0,-1.016 -0.2032,-1.905 -0.2032,-0.889 -0.6604,-1.524 -0.4572,-0.6604 -1.1938,-1.016 -0.7112,-0.381 -1.7272,-0.381 -0.9652,0 -1.778,0.3302 -0.8128,0.3302 -1.2446,0.6858 z m 18.37269,0.3556 q 0.8382,0 1.4732,-0.0254 0.6604,-0.0508 1.0922,-0.1524 v -3.937 q -0.254,-0.127 -0.8382,-0.2032 -0.5588,-0.1016 -1.3716,-0.1016 -0.5334,0 -1.143,0.0762 -0.5842,0.0762 -1.0922,0.3302 -0.4826,0.2286 -0.8128,0.6604 -0.3302,0.4064 -0.3302,1.0922 0,1.27 0.8128,1.778 0.8128,0.4826 2.2098,0.4826 z m -0.2032,-11.8364 q 1.4224,0 2.3876,0.381 0.9906,0.3556 1.5748,1.0414 0.6096,0.6604 0.8636,1.6002 0.254,0.9144 0.254,2.032 v 8.255 q -0.3048,0.0508 -0.8636,0.1524 -0.5334,0.0762 -1.2192,0.1524 -0.6858,0.0762 -1.4986,0.127 -0.7874,0.0762 -1.5748,0.0762 -1.1176,0 -2.0574,-0.2286 -0.9398,-0.2286 -1.6256,-0.7112 -0.6858,-0.508 -1.0668,-1.3208 -0.381,-0.8128 -0.381,-1.9558 0,-1.0922 0.4318,-1.8796 0.4572,-0.7874 1.2192,-1.27 0.762,-0.4826 1.778,-0.7112 1.016,-0.2286 2.1336,-0.2286 0.3556,0 0.7366,0.0508 0.381,0.0254 0.7112,0.1016 0.3556,0.0508 0.6096,0.1016 0.254,0.0508 0.3556,0.0762 v -0.6604 q 0,-0.5842 -0.127,-1.143 -0.127,-0.5842 -0.4572,-1.016 -0.3302,-0.4572 -0.9144,-0.7112 -0.5588,-0.2794 -1.4732,-0.2794 -1.1684,0 -2.0574,0.1778 -0.8636,0.1524 -1.2954,0.3302 l -0.2794,-1.9558 q 0.4572,-0.2032 1.524,-0.381 1.0668,-0.2032 2.3114,-0.2032 z m 13.08945,12.1666 q 0,0.6858 -0.4572,1.1938 -0.4572,0.508 -1.2446,0.508 -0.7874,0 -1.2446,-0.508 -0.4572,-0.508 -0.4572,-1.1938 0,-0.6858 0.4572,-1.1938 0.4572,-0.508 1.2446,-0.508 0.7874,0 1.2446,0.508 0.4572,0.508 0.4572,1.1938 z"
       id="text1"
       aria-label="m a g b a ." />
    <path
       style="fill:#000000;stroke:#ff5d1c;stroke-width:1.743;stroke-linecap:round;stroke-dasharray:0.522899, 3.48599, 1.2201, 4.35749, 3.48599, 5.22899, 5.22899, 5.22899, 6.97198;stroke-dashoffset:0;stroke-opacity:1"
       d="m 162.49716,104.21305 c 0,-33.363134 0,-35.558089 0,-35.558089"
       id="path8" />
    <path
       style="fill:none;stroke:#ff5d1c;stroke-width:1.743;stroke-linecap:round;stroke-dasharray:0.522898, 3.48599, 1.2201, 4.35748, 3.48599, 5.22899, 5.22899, 5.22899, 5.22899, 5.22899, 5.22899, 5.22899, 5.22899, 5.22899;stroke-dashoffset:0;stroke-opacity:1"
       d="m 165.51699,104.19862 c 0,0 6.8905,-45.414035 41.68608,-17.84254"
       id="path9" />
    <path
       style="fill:none;stroke:#ff5d1c;stroke-width:1.743;stroke-linecap:round;stroke-dasharray:0.522899, 3.48599, 1.22009, 4.35749, 3.48599, 5.22899, 5.22899, 5.22899, 5.22899, 5.22899, 5.22899, 5.22899, 5.22899, 5.22899;stroke-dashoffset:0;stroke-opacity:1"
       d="m 159.46511,104.23761 c 0,0 -6.59244,-45.546754 -39.88285,-17.894683"
       id="path9-1" />
  </g>
  <metadata
     id="metadata1">
    <rdf:RDF>
      <cc:Work
         rdf:about="">
        <cc:license
           rdf:resource="http://creativecommons.org/licenses/by-nd/4.0/" />
      </cc:Work>
      <cc:License
         rdf:about="http://creativecommons.org/licenses/by-nd/4.0/">
        <cc:permits
           rdf:resource="http://creativecommons.org/ns#Reproduction" />
        <cc:permits
           rdf:resource="http://creativecommons.org/ns#Distribution" />
        <cc:requires
           rdf:resource="http://creativecommons.org/ns#Notice" />
        <cc:requires
           rdf:resource="http://creativecommons.org/ns#Attribution" />
      </cc:License>
    </rdf:RDF>
  </metadata>
</svg>
